<?xml version="1.0" encoding="UTF-8"?>
<svg width="464px" height="138px" viewBox="0 0 464 138" version="1.1" xmlns="http://www.w3.org/2000/svg" xmlns:xlink="http://www.w3.org/1999/xlink">
    <title>icon / totvs-logo</title>
    <g id="Page-1" stroke="none" stroke-width="1" fill="none" fill-rule="evenodd">
        <g id="Unidade-de-medida" transform="translate(-335.000000, -112.000000)" fill="#000">
            <g id="icon-/-totvs-logo" transform="translate(335.000000, 112.000000)">
                <path d="M67.9207899,-1.42108547e-14 C105.438501,-1.42108547e-14 135.844935,30.8958149 135.844935,69.0021305 C135.844935,107.107594 105.438501,138 67.9207899,138 C30.4097898,138 -4.07904163e-14,107.107594 -4.07904163e-14,69.0021305 C-4.07904163e-14,30.8958149 30.4097898,-1.42108547e-14 67.9207899,-1.42108547e-14 Z M113.709125,38.8366547 C109.380449,35.0818425 52.7519673,20.5355672 48.4325188,22.0652739 C46.8814098,23.51743 46.0509079,34.5006392 45.9326243,46.3701407 C34.0145034,43.5152563 23.7397694,41.511724 21.9948767,42.1253111 C18.6426692,45.269945 18.6426692,92.9848641 21.9881656,97.8381676 C26.3101307,101.595536 82.9486789,116.149482 87.270644,114.616366 C88.8192364,113.163358 89.6547715,102.181001 89.7730551,90.3132036 C101.687821,93.1663836 111.962554,95.1724726 113.709125,94.55292 C117.061332,91.4168082 117.071399,43.7087067 113.709125,38.8366547 Z M252.373824,29.8972019 C268.918427,29.8972019 282.047907,38.9578381 282.047907,62.5886113 L282.047907,74.7095132 C282.047907,98.3377298 268.918427,107.400923 252.373824,107.400923 C235.833415,107.400923 222.699741,98.3377298 222.699741,74.7095132 L222.699741,62.5886113 C222.699741,38.9578381 235.833415,29.8972019 252.373824,29.8972019 Z M360.649789,30.8138329 C361.64723,30.8138329 362.448371,31.627688 362.649705,32.6469243 L375.179377,91.4123767 C375.385744,92.5304688 375.681034,92.9352658 376.585358,92.9352658 C377.489682,92.9352658 377.789166,92.5304688 377.9905,91.4123767 L390.525205,32.6469243 C390.721506,31.627688 391.424496,30.8138329 392.426971,30.8138329 L406.460774,30.8138329 C407.463249,30.8138329 408.166239,31.423159 408.166239,32.4415431 C408.166239,32.5463642 408.068089,32.7483367 408.068089,32.9528657 L393.129961,96.0909784 C390.824689,105.872579 383.506207,107.400582 376.585358,107.400582 C369.669542,107.400582 362.25207,105.872579 359.941765,96.0909784 L345.003638,32.9528657 C345.003638,32.7483367 344.905487,32.6469243 344.905487,32.4415431 C344.905487,31.5262757 345.706628,30.8138329 346.709102,30.8138329 L360.649789,30.8138329 Z M438.842964,29.8972019 C446.157252,29.8972019 456.282664,31.1201151 460.092067,32.1376471 C460.889013,32.3404717 461.596198,32.8500899 461.596198,33.9715907 L461.596198,44.2576967 C461.596198,45.1746685 461.19353,45.9885236 459.890733,45.9885236 L459.694433,45.9885236 C456.887504,45.785699 445.252928,44.8670228 438.440296,44.8670228 C432.723256,44.8670228 430.620157,46.5995541 430.620157,50.2631805 C430.620157,53.1163605 431.922115,54.440686 437.3338,57.3935739 L450.162956,64.4208506 C460.593723,70.1255062 463.700136,76.8459894 463.700136,85.0953271 C463.700136,95.8910512 456.68617,107.400923 436.336358,107.400923 C428.418069,107.400923 422.499694,106.482246 417.387494,105.158773 C416.38502,104.854536 415.382545,104.240097 415.382545,103.122005 L415.382545,93.1401357 C415.382545,91.7169545 416.183686,91.2073364 417.18616,91.2073364 L417.490678,91.2073364 C421.59537,91.6155422 432.625106,92.4276929 436.532659,92.4276929 C443.453508,92.4276929 445.454262,90.1872478 445.454262,85.2998561 C445.454262,82.3444116 444.048281,80.7167014 438.842964,77.5601366 L425.0063,69.2102388 C415.682029,63.6069955 413.180457,57.1924537 413.180457,49.7569711 C413.180457,38.5538933 419.388249,29.8972019 438.842964,29.8972019 Z M216.589597,30.8136624 C217.691899,30.8136624 218.695212,31.6283698 218.695212,32.7481662 L218.695212,43.237949 C218.695212,44.3611543 217.691899,45.1750094 216.589597,45.1750094 L200.34951,45.1750094 L200.34951,104.444967 C200.34951,105.568172 199.445186,106.481735 198.343723,106.481735 L185.210049,106.481735 C184.108585,106.481735 183.205939,105.568172 183.205939,104.444967 L183.205939,45.1750094 L166.866025,45.1750094 C165.759528,45.1750094 164.860237,44.3611543 164.860237,43.237949 L164.860237,32.7481662 C164.860237,31.6283698 165.759528,30.8136624 166.866025,30.8136624 L216.589597,30.8136624 Z M337.586501,30.8136624 C338.687126,30.8136624 339.690439,31.6283698 339.690439,32.7481662 L339.690439,43.237949 C339.690439,44.3611543 338.687126,45.1750094 337.586501,45.1750094 L321.346415,45.1750094 L321.346415,104.444967 C321.346415,105.568172 320.446285,106.481735 319.340627,106.481735 L306.206954,106.481735 C305.10549,106.481735 304.206199,105.568172 304.206199,104.444967 L304.206199,45.1750094 L287.862929,45.1750094 C286.761466,45.1750094 285.852108,44.3611543 285.852108,43.237949 L285.852108,32.7481662 C285.852108,31.6283698 286.761466,30.8136624 287.862929,30.8136624 L337.586501,30.8136624 Z M252.373824,45.1746685 C243.958072,45.1746685 240.045485,50.3680016 240.045485,62.5886113 L240.045485,74.7095132 C240.045485,86.9284185 243.958072,92.1208994 252.373824,92.1208994 C260.798804,92.1208994 264.804507,86.9284185 264.804507,74.7095132 L264.804507,62.5886113 C264.804507,50.3680016 260.798804,45.1746685 252.373824,45.1746685 Z M45.9329599,46.370226 C63.524499,50.5860807 84.6905516,56.6614452 87.2709796,58.9018903 C89.079628,61.5164531 89.9101299,76.5169533 89.7725518,90.3132888 C72.1776571,86.0940253 51.0006989,80.0169564 48.4244654,77.7748069 C46.6275614,75.1636529 45.7978985,60.1699703 45.9329599,46.370226 Z"></path>
            </g>
        </g>
    </g>
</svg>
